<svg xmlns="http://www.w3.org/2000/svg" xmlns:svgjs="http://svgjs.com/svgjs" xmlns:xlink="http://www.w3.org/1999/xlink" width="288" height="288"><svg xmlns="http://www.w3.org/2000/svg" width="288" height="288" version="1.0" viewBox="0 0 545 544"><g fill="#006e76" class="color000 svgShape" transform="matrix(.1 0 0 -.1 0 544)"><path d="M3924 5006 c-11 -8 -58 -27 -105 -41 -46 -15 -98 -36 -115 -46 -17-11 -56 -24 -85 -29 -103 -20 -299 -159 -331 -237 -24 -56 -72 -186 -103 -281
-15 -45 -34 -86 -43 -91 -10 -5 -46 -12 -82 -16 -63 -7 -66 -6 -77 18 -11 23
-53 51 -182 119 -79 41 -121 35 -121 -19 0 -31 -11 -29 -62 12 -89 73 -88 72
-88 112 0 80 -87 183 -154 183 l-26 0 -2 -107 c-1 -60 -2 -115 -4 -123 -1 -8
-2 -29 -3 -47 -1 -31 -2 -32 -36 -26 -34 5 -35 5 -35 -26 0 -40 -18 -47 -82
-34 -43 9 -48 8 -43 -7 7 -21 -15 -40 -52 -46 -16 -2 -42 -8 -58 -12 -29 -8
-30 -9 -8 -20 52 -28 118 -16 133 24 11 29 29 30 79 4 21 -10 76 -24 121 -29
l83 -11 43 40 c24 22 50 40 57 40 8 0 26 -18 40 -39 31 -47 142 -107 176 -96
31 9 80 53 97 86 19 37 37 37 64 -1 29 -40 23 -59 -29 -94 -44 -29 -47 -30
-178 -30 -109 1 -136 4 -151 17 -17 16 -22 15 -78 -4 -32 -11 -87 -31 -121
-45 -53 -21 -76 -24 -155 -22 -80 2 -103 -1 -162 -24 -72 -27 -96 -27 -96 1 0
36 25 66 59 71 40 6 51 25 20 33 -27 7 -137 2 -145 -6 -4 -4 1 -18 10 -31 30
-47 14 -110 -36 -137 -19 -10 -20 -9 -14 14 4 18 -5 50 -29 106 -19 43 -35 82
-35 86 0 4 -12 34 -26 66 -27 60 -44 75 -44 38 l0 -20 -26 20 c-31 25 -55 13
-47 -22 12 -52 66 -214 84 -248 l18 -37 -31 -11 c-50 -17 -72 -13 -104 20 -16
17 -37 35 -46 40 -16 8 -17 7 -8 -17 6 -14 24 -42 40 -62 34 -42 36 -48 15
-68 -8 -9 -15 -26 -15 -38 0 -14 -31 -58 -79 -114 -106 -122 -130 -159 -201
-304 -50 -103 -61 -135 -66 -195 -6 -62 -4 -73 10 -79 23 -9 20 -37 -6 -62
-17 -15 -50 -25 -119 -36 -53 -9 -109 -20 -124 -26 -42 -16 -53 -12 -64 23
-24 72 -51 234 -56 335 -4 59 -8 132 -10 162 -1 30 -3 76 -4 103 -1 27 -6 47
-12 47 -8 0 -10 -63 -6 -227 5 -233 15 -301 62 -432 l15 -45 -77 -74 c-43 -41
-67 -67 -53 -58 108 69 160 91 160 67 0 -4 -23 -29 -50 -55 -49 -46 -81 -63
-183 -100 -26 -10 -60 -28 -75 -41 -15 -12 -49 -34 -77 -48 -27 -14 -62 -38
-77 -54 -57 -60 -108 -217 -109 -342 -1 -52 4 -67 45 -137 25 -43 46 -84 46
-91 0 -14 126 -190 168 -236 25 -26 26 -32 24 -141 -1 -62 -8 -140 -15 -172
-10 -42 -11 -66 -4 -82 8 -18 6 -36 -8 -75 -23 -63 -23 -142 -1 -182 9 -16 16
-35 16 -40 0 -19 55 -75 90 -93 19 -9 52 -39 73 -67 l38 -50 -111 -107 c-125
-122 -160 -147 -298 -222 -96 -51 -290 -203 -405 -318 l-47 -48 0 -120 0 -120
295 0 295 0 6 27 c18 83 29 115 64 188 43 90 60 145 60 193 0 18 18 70 39 116
42 90 74 175 90 241 6 24 25 55 46 75 29 29 38 32 57 23 24 -11 61 -2 73 16
10 18 35 13 65 -12 l28 -24 -32 -44 c-18 -24 -47 -71 -65 -104 -19 -33 -55
-92 -81 -130 -49 -73 -220 -405 -220 -427 0 -7 -7 -26 -15 -41 -8 -15 -17 -43
-21 -62 l-6 -35 144 0 144 0 13 78 c6 42 17 95 23 117 12 45 68 160 93 190 15
19 16 17 10 -31 -3 -28 -21 -115 -40 -193 -19 -78 -35 -146 -35 -152 0 -5 71
-9 172 -9 l171 0 81 47 c140 80 193 120 205 153 6 17 39 57 73 88 35 31 101
94 148 138 106 102 120 110 160 89 27 -14 30 -14 30 0 0 19 10 19 38 -1 31
-21 28 -3 -9 62 -36 64 -35 87 6 94 l29 5 -38 43 c-40 44 -63 52 -73 26 -10
-26 -23 4 -23 53 0 24 -7 61 -16 82 -9 22 -14 45 -12 50 5 18 190 -205 243
-294 12 -18 29 -43 39 -54 10 -11 16 -24 15 -29 -9 -21 -344 -329 -435 -398
-54 -43 -118 -94 -141 -116 l-43 -38 41 0 c34 0 53 10 117 59 42 32 121 98
176 147 177 160 269 234 373 299 112 71 141 82 172 66 25 -14 107 2 132 25 20
18 84 15 84 -4 0 -7 -32 -31 -72 -55 -317 -187 -471 -289 -555 -366 -32 -29
-58 -60 -58 -68 0 -9 -16 -33 -36 -55 -19 -22 -33 -42 -31 -45 3 -2 65 36 139
85 73 49 214 135 313 192 99 56 234 134 300 173 66 39 146 84 177 99 31 16 60
33 63 38 16 26 117 0 123 -32 2 -12 -24 -25 -120 -57 -99 -33 -143 -54 -225
-110 -57 -38 -134 -85 -172 -104 -39 -20 -107 -60 -153 -89 -46 -28 -139 -85
-207 -125 l-125 -73 77 0 c71 0 80 2 120 33 73 55 279 151 607 283 173 70 331
131 350 136 19 6 43 17 53 26 9 8 19 13 21 11 10 -9 76 -154 76 -166 0 -16
-15 -24 -53 -29 -75 -10 -96 -17 -187 -59 -74 -35 -118 -48 -198 -60 -221 -33
-375 -85 -462 -154 l-25 -21 80 0 c63 0 114 9 236 41 147 39 200 44 183 18 -3
-6 -30 -22 -58 -35 l-51 -23 149 0 c108 -1 178 4 255 19 58 11 150 24 204 29
92 9 101 12 136 44 21 19 62 42 90 52 53 17 68 17 176 -5 182 -36 203 -38 253
-26 41 10 65 -6 34 -23 -32 -17 -99 -29 -227 -41 -66 -6 -160 -19 -210 -29
l-90 -19 266 -1 c146 0 269 2 273 6 13 14 231 83 261 83 29 0 14 -19 -42 -54
l-58 -35 119 -1 c117 0 121 1 148 27 30 29 38 27 41 -6 1 -20 7 -21 99 -21 76
0 98 3 98 14 0 7 24 60 54 117 81 156 152 358 216 609 48 189 159 764 170 884
21 212 30 291 40 361 12 79 7 128 -22 195 -35 82 -68 100 -68 36 0 -38 -15
-56 -47 -56 -28 0 -39 -25 -48 -102 -14 -116 -55 -188 -106 -188 -17 0 -19 -9
-19 -88 l0 -88 -36 -17 c-42 -20 -54 -16 -54 21 1 147 203 647 326 806 28 35
42 62 37 67 -13 13 -71 -46 -113 -112 -66 -107 -103 -158 -110 -154 -9 6 0 56
13 72 5 7 5 13 1 13 -10 0 -74 -94 -119 -173 -61 -109 -99 -268 -111 -458 -3
-62 -10 -118 -14 -123 -5 -4 -16 4 -25 18 -16 25 -16 33 -2 126 19 120 15 170
-17 230 -88 166 -89 170 -78 193 12 24 21 67 29 137 5 48 -2 61 -133 244 l-35
50 47 44 c51 49 144 171 189 247 49 84 125 312 125 374 0 65 -108 264 -193
357 -31 34 -72 65 -113 85 -62 31 -68 32 -158 26 l-93 -5 -17 28 c-12 22 -15
41 -10 84 7 54 6 56 -22 66 -16 7 -45 9 -64 6 -118 -19 -120 -19 -120 -2 0 9
20 38 45 65 31 34 46 59 51 88 8 49 -8 83 -39 83 -47 0 -155 -89 -223 -185
-12 -17 -25 -26 -32 -21 -16 10 -4 32 66 114 175 204 227 288 243 392 13 84 6
141 -20 179 -10 14 -32 53 -49 86 -16 33 -57 98 -91 145 -33 47 -67 95 -76
108 -19 26 -69 30 -101 8z m-388 -306 c22 0 24 -4 24 -48 0 -27 6 -56 13 -65
19 -26 87 -57 124 -57 19 0 50 -7 70 -15 19 -8 43 -15 53 -15 10 0 20 -9 23
-20 8 -29 -2 -93 -14 -101 -6 -3 -44 4 -85 17 -55 18 -98 24 -163 24 l-89 0
-58 -45 c-33 -25 -83 -65 -112 -90 -59 -50 -91 -58 -93 -22 -2 46 4 71 42 179
58 163 149 276 213 264 16 -4 39 -6 52 -6z m-397 -616 c37 -47 25 -75 -36 -89
-18 -3 -42 -14 -55 -24 -56 -44 -98 -49 -98 -11 0 25 50 96 90 125 43 32 73
32 99 -1z m553 -11 c26 -23 22 -40 -12 -58 -49 -25 -39 -45 23 -45 67 0 89
-13 50 -29 -46 -19 -185 -49 -200 -44 -21 8 -10 26 23 36 39 13 38 12 20 39
-26 37 -20 61 27 90 50 33 46 32 69 11z m-1159 -28 c27 -28 57 -84 57 -107 0
-8 9 -23 20 -33 29 -26 25 -59 -12 -108 -18 -23 -40 -52 -48 -65 -10 -14 -30
-24 -55 -28 -42 -6 -57 -14 -39 -21 6 -2 19 -10 29 -17 17 -12 16 -16 -13 -57
-51 -72 -61 -83 -69 -75 -17 17 6 207 25 214 9 3 8 11 -2 31 -8 15 -17 45 -21
66 -4 22 -14 59 -22 83 -19 52 -8 81 47 118 44 31 71 30 103 -1z m-316 -55 c7
-14 13 -53 13 -87 0 -55 -2 -63 -19 -63 -10 0 -47 -9 -81 -20 -95 -30 -117
-27 -175 24 l-50 44 24 25 c13 14 49 38 80 53 31 15 67 33 81 40 14 7 45 12
70 11 37 -2 47 -6 57 -27z m-760 -443 c-26 -50 -47 -99 -47 -107 0 -11 -94
-210 -118 -249 -1 -3 -7 0 -13 6 -16 16 12 102 71 218 27 53 50 105 50 114 0
19 33 77 63 109 14 15 24 19 31 12 7 -7 -5 -40 -37 -103z m1763 52 c6 -67 16
-80 83 -114 87 -43 207 -29 207 25 0 10 11 32 24 47 l24 28 179 0 c153 0 181
-2 203 -17 13 -10 32 -18 42 -18 23 0 23 -29 1 -37 -10 -3 -44 -22 -75 -41
-45 -27 -58 -40 -58 -59 0 -30 -43 -49 -76 -34 -18 8 -24 22 -29 66 -8 58 -19
75 -38 56 -6 -6 -19 -11 -29 -11 -9 0 -34 -11 -54 -25 -20 -14 -45 -25 -55
-25 -10 0 -26 -12 -35 -26 -10 -14 -33 -33 -52 -42 -28 -14 -39 -28 -56 -74
-16 -44 -31 -64 -63 -88 -26 -18 -51 -48 -65 -77 -34 -70 -55 -77 -157 -47
-46 13 -98 24 -116 24 -66 0 -112 -66 -101 -144 7 -46 85 -180 111 -190 19 -7
19 -25 -1 -47 -14 -16 -13 -20 13 -48 26 -30 38 -34 115 -40 3 -1 16 -31 28
-68 12 -36 32 -88 46 -114 18 -37 24 -64 24 -116 0 -79 -5 -89 -45 -99 -17 -4
-33 -11 -36 -16 -3 -5 -23 5 -45 23 -32 25 -40 28 -42 14 -5 -22 58 -102 86
-110 12 -3 22 -9 22 -14 0 -4 12 -25 26 -46 14 -21 38 -75 54 -119 15 -45 35
-102 45 -128 16 -44 16 -50 0 -105 -9 -32 -32 -83 -51 -114 -19 -31 -34 -64
-34 -73 0 -26 -27 -19 -103 28 -40 24 -112 65 -160 91 l-88 47 29 19 c23 13
34 32 47 76 53 180 72 384 43 453 -8 19 -43 72 -76 116 -34 45 -66 94 -72 109
-6 14 -12 72 -15 128 -7 134 -10 148 -55 242 -21 44 -60 131 -86 194 -51 120
-74 147 -159 192 -62 33 -79 22 -71 -44 3 -28 11 -74 17 -102 13 -60 12 -169
-2 -173 -5 -2 -17 -11 -25 -20 -15 -14 -15 -17 2 -29 18 -14 18 -15 -3 -33
-13 -10 -23 -20 -23 -23 0 -3 23 -10 50 -16 55 -12 100 -32 117 -53 6 -7 14
-35 17 -62 3 -27 12 -65 18 -84 11 -29 10 -35 -5 -43 -26 -15 -21 -35 33 -144
64 -126 81 -214 95 -493 5 -95 1 -112 -27 -112 -19 0 -158 56 -291 117 -90 42
-90 40 -56 168 16 61 38 152 49 203 11 51 29 128 40 172 31 120 28 133 -40
230 -32 47 -82 124 -110 171 -28 48 -61 94 -75 103 -41 27 -32 60 48 181 56
86 80 114 110 128 21 10 43 29 49 45 7 15 26 43 43 63 16 19 48 62 70 93 64
93 115 156 125 156 14 0 12 -28 -2 -33 -17 -6 36 -27 68 -27 13 0 24 -4 24 -9
0 -12 -64 -67 -100 -86 -34 -18 -40 -30 -11 -22 21 5 23 2 37 -93 16 -109 109
-220 184 -220 59 0 97 19 125 65 30 46 31 55 33 296 1 40 6 60 19 71 45 41 90
67 113 65 23 -2 25 -7 30 -58z m-1002 -25 c7 -13 13 -14 30 -5 27 14 52 14 52
-1 0 -6 9 -22 21 -34 l21 -22 -30 -16 c-17 -9 -40 -35 -54 -63 -14 -26 -40
-58 -59 -70 -19 -12 -43 -30 -53 -40 -34 -31 -90 -63 -113 -63 -23 0 -117 33
-143 50 -27 18 9 30 90 30 85 0 110 12 130 60 7 16 20 30 29 30 9 0 23 4 31
10 12 8 12 13 -2 44 -16 33 -16 36 2 59 14 18 16 27 8 35 -9 9 -7 12 10 12 11
0 25 -7 30 -16z m2342 -111 c66 -18 175 -98 191 -140 8 -22 13 -24 43 -19 24
5 39 2 50 -9 23 -23 20 -34 -17 -69 -18 -17 -50 -63 -70 -101 -48 -91 -179
-265 -250 -332 -59 -56 -83 -63 -127 -38 -34 19 -79 19 -102 -1 -13 -12 -44
-18 -113 -22 -129 -6 -127 -29 6 -91 86 -41 224 -179 235 -236 9 -49 -1 -192
-15 -209 -6 -7 -9 -20 -7 -27 3 -8 7 -74 10 -148 5 -146 4 -152 -69 -341 -20
-52 -56 -149 -81 -215 -24 -66 -60 -142 -79 -170 -97 -138 -142 -191 -185
-213 -25 -13 -54 -32 -66 -43 -29 -27 -41 -10 -51 71 -8 62 -9 65 -37 68 -20
3 -36 -4 -55 -22 l-27 -26 -77 44 c-93 53 -199 131 -251 185 l-39 40 107 111
107 111 -6 52 c-3 29 -7 88 -9 132 -3 69 -8 89 -40 148 -37 71 -44 114 -27
171 47 156 49 242 9 306 -18 28 -24 58 -30 150 -4 63 -9 130 -10 149 -3 32 0
35 61 68 l64 34 36 -24 c45 -30 107 -51 127 -43 8 3 26 29 39 58 23 49 24 60
18 148 -9 119 -8 179 4 191 4 4 53 18 108 29 108 22 147 43 262 144 85 74 117
96 182 122 67 28 102 29 181 7z m-2750 -258 c18 -10 62 -14 163 -15 l138 0
-17 -32 c-33 -66 -169 -248 -183 -246 -18 4 -28 40 -37 127 -3 36 -9 70 -13
74 -23 24 -63 -37 -77 -114 -6 -39 14 -134 39 -183 19 -35 8 -71 -33 -113 -28
-29 -29 -32 -16 -59 8 -17 16 -81 20 -149 5 -106 18 -191 42 -290 4 -16 15
-41 24 -55 9 -14 29 -44 45 -67 27 -42 50 -55 125 -67 42 -7 158 -79 167 -103
13 -36 36 -53 74 -53 28 0 83 -24 221 -96 101 -53 190 -102 198 -110 22 -21
-5 -60 -65 -93 -47 -25 -48 -25 -59 -7 -30 54 -139 126 -189 126 -43 0 -90
-41 -109 -95 -10 -28 -18 -58 -18 -67 0 -16 68 -53 155 -84 22 -8 49 -18 60
-24 11 -5 36 -16 55 -24 19 -8 47 -23 63 -33 36 -24 56 -11 81 53 56 140 85
199 100 202 9 2 41 -8 71 -22 73 -33 258 -144 298 -178 30 -26 31 -27 10 -29
-13 -1 -27 -3 -33 -4 -5 -1 -17 -3 -26 -4 -8 0 -49 -33 -90 -72 -71 -67 -77
-71 -112 -65 -115 18 -147 17 -202 -6 -30 -13 -54 -27 -53 -33 2 -17 84 -35
158 -36 114 0 184 28 290 116 50 41 96 75 104 75 7 0 43 -22 80 -49 36 -26
125 -79 196 -116 72 -37 138 -75 148 -83 21 -18 22 -58 2 -104 -8 -19 -18 -75
-22 -124 l-8 -89 -32 -3 c-36 -4 -78 17 -172 83 -35 25 -70 45 -78 45 -8 0
-22 -18 -31 -40 -9 -22 -20 -40 -24 -40 -4 0 -42 22 -84 50 -42 28 -83 50 -90
50 -19 0 -37 -38 -30 -65 8 -31 -4 -37 -39 -19 -64 33 -70 -13 -14 -95 32 -46
28 -61 -16 -61 -43 0 -65 14 -110 70 -26 32 -53 61 -60 64 -39 15 -9 -80 46
-142 27 -31 29 -36 15 -44 -31 -17 -288 55 -353 99 -39 27 -53 29 -53 8 0 -20
-24 -19 -55 1 -30 19 -30 16 -8 -30 13 -29 14 -40 5 -61 -6 -14 -20 -25 -29
-25 -24 0 -221 203 -229 236 -12 46 7 39 73 -29 71 -73 99 -83 109 -40 3 16
10 44 15 63 8 32 6 37 -23 62 -44 37 -51 35 -27 -7 36 -60 2 -73 -72 -26 -24
15 -80 60 -124 100 -80 72 -103 86 -90 54 14 -33 17 -63 8 -63 -19 0 -100 79
-113 110 -12 28 -54 60 -80 60 -6 0 -8 -15 -4 -42 8 -54 1 -47 -65 57 -153
242 -154 246 -81 257 55 8 164 -7 194 -27 12 -8 48 -16 79 -17 52 -2 60 0 89
29 43 43 42 82 -2 128 -49 50 -76 58 -187 53 -85 -5 -109 -10 -180 -42 -44
-20 -89 -36 -98 -36 -9 0 -30 13 -45 29 -24 23 -31 26 -41 15 -6 -7 -8 -22 -4
-34 10 -33 -11 -48 -91 -66 -68 -15 -79 -15 -122 -1 -26 9 -69 18 -97 22 -87
10 -88 11 -154 214 l-30 93 25 -5 c23 -4 24 -3 9 13 -19 21 -136 80 -159 80
-32 0 -15 -20 43 -49 50 -26 59 -35 64 -63 3 -18 9 -41 13 -52 6 -15 4 -17
-15 -11 -20 6 -22 4 -17 -14 6 -22 10 -37 20 -83 9 -38 -10 -36 -73 7 -28 20
-68 41 -88 48 -36 12 -37 12 -59 112 -33 148 -47 176 -120 240 -78 69 -102
132 -57 149 12 5 14 1 10 -14 -7 -27 2 -26 77 16 l65 35 -37 49 c-20 27 -64
86 -97 131 -33 45 -70 86 -82 92 -13 6 -23 17 -23 24 0 36 53 103 81 103 18 0
39 -51 39 -97 0 -13 15 -36 37 -55 20 -18 66 -59 101 -91 44 -41 67 -56 75
-49 7 6 35 17 63 25 77 23 107 41 157 97 25 27 52 50 61 50 13 0 14 3 4 19 -9
15 -9 25 0 47 7 14 10 29 7 32 -3 3 -33 8 -68 10 -67 5 -91 17 -82 40 4 11 -1
13 -20 10 -61 -12 -7 23 176 113 207 102 240 128 322 249 16 25 40 56 52 70
13 14 25 34 29 45 7 22 58 55 85 55 9 0 26 7 39 15 58 41 139 55 182 30z m373
-411 c10 -43 23 -99 29 -124 22 -92 27 -147 28 -264 1 -109 -15 -325 -25 -334
-9 -9 -55 9 -80 31 -30 26 -52 116 -61 247 -4 65 -12 99 -34 145 -16 33 -35
88 -42 123 -12 60 -11 63 10 78 13 9 32 35 43 59 25 52 87 127 102 122 7 -2
20 -39 30 -83z m2553 -856 c13 -40 15 -69 10 -131 -7 -87 -17 -113 -43 -120
-99 -27 -103 -21 -59 102 20 56 36 117 36 136 0 80 31 88 56 13z m-3941 -348
c9 -18 42 -45 83 -69 89 -52 104 -71 131 -166 13 -44 29 -92 37 -107 14 -26
19 -78 8 -78 -12 0 -51 24 -100 61 -82 63 -103 48 -31 -23 79 -79 150 -132
173 -130 28 2 41 -15 17 -22 -10 -2 -43 -8 -73 -11 -30 -4 -63 -11 -73 -17
-15 -8 -16 -11 -2 -37 8 -16 27 -43 42 -61 l28 -33 -30 7 c-20 4 -66 43 -135
114 -131 133 -175 212 -168 298 3 33 13 65 25 82 16 22 19 38 15 88 -4 61 11
134 29 134 4 0 15 -13 24 -30z m378 -182 c35 -10 43 -19 63 -65 13 -29 26 -65
29 -80 6 -25 3 -23 -19 12 -31 49 -34 34 -5 -32 45 -102 67 -163 59 -163 -4 0
-29 24 -54 53 l-45 52 6 -37 c6 -44 -8 -51 -31 -15 -18 28 -79 265 -71 278 8
12 19 11 68 -3z m462 -209 c61 -118 131 -254 158 -301 26 -47 47 -93 47 -101
0 -8 -11 -22 -25 -31 l-25 -16 21 -53 c11 -28 23 -60 26 -70 7 -22 -28 -61
-70 -78 -18 -7 -57 -29 -87 -49 -30 -21 -75 -47 -100 -60 -25 -12 -56 -32 -70
-45 -46 -42 -179 -125 -209 -131 -29 -6 -31 -4 -31 22 0 16 10 45 23 64 13 19
29 50 36 67 12 29 11 36 -4 60 l-18 27 -28 -55 c-35 -69 -52 -85 -69 -64 -11
13 -10 23 5 55 14 31 16 52 11 100 -13 110 -16 112 -68 39 -25 -35 -67 -102
-94 -149 -27 -47 -54 -89 -61 -95 -6 -5 -13 -19 -15 -29 -1 -11 -9 -21 -17
-24 -11 -4 -13 4 -8 38 4 29 1 50 -9 65 -14 21 -10 32 52 155 37 73 81 170 99
214 l31 81 48 0 c54 1 54 0 86 -75 12 -30 39 -82 60 -117 21 -34 45 -83 54
-110 21 -60 55 -123 56 -103 0 32 -70 199 -145 340 -59 112 -59 123 2 99 15
-6 50 -14 78 -18 43 -5 52 -10 63 -36 20 -43 63 -108 68 -102 2 2 -3 21 -11
42 -9 20 -14 40 -11 43 8 7 6 9 56 -70 23 -38 45 -68 48 -68 4 0 5 25 4 55 -3
45 -1 56 14 62 25 9 45 -24 42 -74 -2 -51 4 -60 26 -38 23 24 20 41 -19 119
-23 47 -32 73 -25 80 17 17 11 54 -13 94 -13 20 -41 76 -62 124 -35 76 -42 85
-55 73 -9 -8 -25 -12 -38 -8 -30 7 -28 1 18 -52 38 -44 51 -75 30 -75 -12 0
-127 133 -186 216 -44 62 -79 140 -66 148 4 2 41 9 82 15 41 7 76 14 79 17 3
3 28 4 56 2 l50 -3 110 -216z m2705 28 c0 -56 -36 -114 -149 -238 -58 -64 -80
-76 -58 -31 8 15 17 39 21 55 8 34 64 127 77 127 4 0 15 13 23 29 19 37 65 91
77 91 5 0 9 -15 9 -33z m-624 -181 l28 -23 -17 -104 c-38 -229 -53 -229 -63 0
-6 134 -5 151 9 151 9 0 28 -11 43 -24z m630 -130 c18 -14 18 -15 -11 -46 -16
-18 -55 -49 -86 -71 -75 -51 -112 -95 -100 -118 28 -52 85 -56 189 -15 88 35
214 98 281 141 29 19 57 31 61 26 4 -4 18 -32 31 -61 26 -62 20 -72 -43 -72
-53 0 -68 -9 -68 -40 0 -31 -18 -49 -77 -79 -50 -25 -368 -79 -540 -92 -62 -4
-137 -12 -167 -18 -69 -13 -126 -4 -126 18 0 10 14 38 30 64 17 26 30 53 30
60 0 7 9 27 21 46 18 29 24 33 50 27 17 -3 40 -1 51 5 15 8 24 7 37 -5 22 -20
45 -20 60 -2 6 7 40 28 75 45 41 20 98 63 155 116 50 47 99 85 109 85 10 0 27
-6 38 -14z m-744 -283 c-1 -18 -10 -56 -20 -85 -14 -45 -21 -53 -45 -56 -15
-2 -52 8 -83 22 -31 14 -63 26 -70 26 -25 0 -15 35 19 68 24 23 50 35 97 46
94 20 106 18 102 -21z" class="color000 svgShape"/><path d="M4333 3338c-11-13-22-28-24-34-6-16-145-136-181-156-17-9-61-22-99-28-79-13-102-34-90-78 12-41 61-34 178 23 89 44 108 58 205 159 81 84 104 114 96 123-17 20-62 15-85-9zM3762 2578c-18-11-32-25-33-31-4-36 8-71 51-157 54-108 120-270 120-294 0-8-11-18-24-22-21-5-24-11-22-52 1-40 4-47 23-50 26-4 47-27 38-42-3-6-22-17-41-25-23-9-38-24-45-44-6-16-17-32-25-35-19-7-18-42 2-50 9-3 33-6 54-6 67 0 75-50 24-149-20-38-23-52-14-80 7-26 5-46-9-89-20-58-18-82 4-82 20 0 28-19 15-35-8-10-6-17 12-29 22-16 24-15 41 8 10 14 39 38 66 54 47 29 48 31 53 89 3 34 18 87 36 126 17 37 28 67 25 67-3 0-1 6 5 13 5 6 21 44 35 82 14 39 33 85 42 104 32 62-3 204-65 262-15 14-37 52-49 85-12 32-28 73-36 91-8 17-15 37-15 45 0 26-43 84-124 166-102 104-104 106-144 80zM1491 2336c-13-14-40-33-60-42-66-31-201-116-201-126 0-7 4-7 13 0 6 6 53 26 104 45 81 30 105 35 195 36 56 1 105 4 107 7 3 2-1 10-7 16-7 7-12 22-12 35 0 50-100 71-139 29z" class="color000 svgShape"/><path d="M1226 2302c-10-17-218-114-254-119-60-8-66-11-52-28 7-8 28-15 46-15 18 0 47-8 64-18l30-19-25-11c-41-19-85-14-173 18-87 32-118 37-106 19 11-18 113-59 173-70 57-11 86-7 205 33 72 23 96 36 96 48 0 13-37 13-44 1-7-11-85-26-93-18-3 3 34 46 82 96 51 53 81 91 72 91-9 0-18-4-21-8zM1763 1908c-24-12-43-29-43-38 0-18 49-50 77-50 33-1 76-34 216-162 35-32 38-33 77-13 72 37 39 132-79 226-79 63-171 76-248 37zM2433 1020c-13-5-23-12-23-16 0-3 28-35 62-71l63-65-38 7c-31 6-36 5-31-8 3-9 14-19 23-22 9-3 48-25 86-50 37-25 72-45 76-45 5 0 9 12 9 28 0 43 12 52 91 68 81 17 127 48 115 79-5 15-15 16-62 10-68-8-202 3-215 19-50 63-56 67-94 71-22 3-50 0-62-5zM380 3744c0-3 55-63 123-133 165-172 195-230 243-469 13-68 32-138 42-155l17-32 3 29c7 61-87 415-136 511-45 88-147 200-216 237-30 16-76 24-76 12z" class="color000 svgShape"/></g></svg></svg>